<svg xmlns="http://www.w3.org/2000/svg" xmlns:xlink="http://www.w3.org/1999/xlink" width="500" zoomAndPan="magnify" viewBox="0 0 375 374.999991" height="500" preserveAspectRatio="xMidYMid meet" version="1.2"><defs/><g id="4098a92854"><path style=" stroke:none;fill-rule:nonzero;fill:#1ac2ea;fill-opacity:1;" d="M 347.914062 69.566406 C 339.101562 61.644531 325.53125 62.359375 317.605469 71.171875 C 309.679688 79.984375 310.398438 93.554688 319.210938 101.480469 C 328.019531 109.40625 341.589844 108.6875 349.515625 99.878906 C 357.445312 91.066406 356.726562 77.492188 347.914062 69.566406 Z M 287.359375 84.621094 C 288.273438 90.792969 290.589844 96.667969 294.421875 101.59375 L 307.144531 117.933594 C 313.710938 126.367188 323.203125 132.164062 333.785156 133.691406 C 336.296875 134.054688 338.808594 134.699219 341.28125 135.648438 C 359.8125 142.738281 368.824219 163.894531 360.796875 182.285156 C 353.632812 198.703125 334.878906 207.070312 317.867188 201.449219 C 294.957031 193.882812 293.980469 173.464844 295.792969 161.183594 C 296.808594 154.285156 294.914062 147.28125 290.628906 141.78125 L 279.886719 127.984375 C 273.195312 119.386719 260.128906 119.625 253.75 128.453125 L 246.351562 138.691406 C 237.644531 150.742188 234.476562 165.792969 236.972656 180.449219 C 238.242188 187.90625 237.589844 195.785156 234.691406 203.363281 C 225.929688 226.253906 200.027344 237.539062 177.21875 228.1875 C 156.058594 219.511719 144.890625 194.097656 152.792969 172.632812 C 158.519531 157.078125 172.113281 146.769531 187.371094 144.476562 C 202.015625 142.273438 215.234375 134.488281 223.910156 122.480469 L 237.953125 103.046875 C 241.671875 97.898438 244.066406 91.894531 244.703125 85.582031 C 244.886719 83.726562 245.320312 81.871094 246.015625 80.050781 C 249.089844 72.019531 256.460938 66.898438 264.503906 66.296875 L 266.910156 66.257812 C 269.199219 66.34375 271.515625 66.792969 273.773438 67.660156 C 281.292969 70.535156 286.265625 77.179688 287.359375 84.621094 "/><path style=" stroke:none;fill-rule:nonzero;fill:#81deea;fill-opacity:1;" d="M 54.273438 163.894531 C 45.457031 155.96875 31.890625 156.6875 23.964844 165.5 C 16.039062 174.308594 16.757812 187.878906 25.570312 195.804688 C 34.382812 203.734375 47.949219 203.015625 55.875 194.203125 C 63.804688 185.390625 63.085938 171.824219 54.273438 163.894531 Z M 83.488281 182.527344 C 82.894531 176.320312 80.878906 170.332031 77.304688 165.214844 L 65.429688 148.246094 C 59.304688 139.488281 50.121094 133.214844 39.636719 131.148438 C 37.144531 130.652344 34.664062 129.878906 32.246094 128.808594 C 14.101562 120.78125 6.1875 99.191406 15.140625 81.234375 C 23.136719 65.203125 42.296875 57.808594 58.996094 64.292969 C 81.492188 73.019531 81.421875 93.457031 78.984375 105.632812 C 77.613281 112.46875 79.148438 119.566406 83.148438 125.277344 L 93.167969 139.605469 C 99.410156 148.53125 112.472656 148.964844 119.296875 140.476562 L 127.207031 130.628906 C 136.519531 119.039062 140.453125 104.167969 138.710938 89.402344 C 137.828125 81.890625 138.878906 74.054688 142.160156 66.632812 C 152.082031 44.21875 178.53125 34.273438 200.828125 44.78125 C 221.515625 54.53125 231.371094 80.484375 222.382812 101.511719 C 215.867188 116.757812 201.761719 126.355469 186.410156 127.867188 C 171.671875 129.316406 158.066406 136.417969 148.789062 147.960938 L 133.769531 166.65625 C 129.796875 171.601562 127.097656 177.480469 126.140625 183.75 C 125.859375 185.589844 125.332031 187.421875 124.542969 189.207031 C 121.0625 197.066406 113.4375 201.808594 105.378906 201.996094 L 102.972656 201.914062 C 100.691406 201.707031 98.398438 201.140625 96.1875 200.160156 C 88.824219 196.902344 84.203125 190.011719 83.488281 182.527344 "/><g style="fill:#000000;fill-opacity:1;"><g transform="translate(3.766079, 312.734943)"><path style="stroke:none" d="M 28.640625 -11.15625 C 32.128906 -11.15625 34.910156 -12.175781 36.984375 -14.21875 C 39.054688 -16.257812 40.09375 -18.929688 40.09375 -22.234375 L 40.09375 -47.75 C 40.09375 -51.050781 39.054688 -53.703125 36.984375 -55.703125 C 34.910156 -57.710938 32.128906 -58.71875 28.640625 -58.71875 L 19.3125 -58.71875 L 19.3125 -11.15625 Z M 7.078125 0 L 7.078125 -69.890625 L 28.640625 -69.890625 C 32.191406 -69.890625 35.421875 -69.351562 38.328125 -68.28125 C 41.242188 -67.21875 43.738281 -65.710938 45.8125 -63.765625 C 47.882812 -61.828125 49.484375 -59.5 50.609375 -56.78125 C 51.742188 -54.0625 52.3125 -51.050781 52.3125 -47.75 L 52.3125 -22.234375 C 52.3125 -18.929688 51.742188 -15.90625 50.609375 -13.15625 C 49.484375 -10.40625 47.882812 -8.054688 45.8125 -6.109375 C 43.738281 -4.171875 41.242188 -2.664062 38.328125 -1.59375 C 35.421875 -0.53125 32.191406 0 28.640625 0 Z M 7.078125 0 "/></g></g><g style="fill:#000000;fill-opacity:1;"><g transform="translate(65.590814, 312.734943)"><path style="stroke:none" d="M 18.046875 -20.1875 C 18.046875 -16.945312 19.03125 -14.390625 21 -12.515625 C 22.976562 -10.640625 25.6875 -9.703125 29.125 -9.703125 C 32.550781 -9.703125 35.25 -10.640625 37.21875 -12.515625 C 39.195312 -14.390625 40.1875 -16.945312 40.1875 -20.1875 L 40.1875 -33.296875 C 40.1875 -36.523438 39.195312 -39.078125 37.21875 -40.953125 C 35.25 -42.835938 32.550781 -43.78125 29.125 -43.78125 C 25.757812 -43.78125 23.070312 -42.835938 21.0625 -40.953125 C 19.050781 -39.078125 18.046875 -36.523438 18.046875 -33.296875 Z M 5.921875 -33.296875 C 5.921875 -36.460938 6.46875 -39.335938 7.5625 -41.921875 C 8.664062 -44.515625 10.234375 -46.734375 12.265625 -48.578125 C 14.304688 -50.421875 16.75 -51.84375 19.59375 -52.84375 C 22.445312 -53.851562 25.625 -54.359375 29.125 -54.359375 C 32.613281 -54.359375 35.78125 -53.851562 38.625 -52.84375 C 41.476562 -51.84375 43.921875 -50.421875 45.953125 -48.578125 C 47.992188 -46.734375 49.5625 -44.515625 50.65625 -41.921875 C 51.757812 -39.335938 52.3125 -36.460938 52.3125 -33.296875 L 52.3125 -20.1875 C 52.3125 -17.019531 51.757812 -14.125 50.65625 -11.5 C 49.5625 -8.882812 48.007812 -6.648438 46 -4.796875 C 44 -2.953125 41.554688 -1.53125 38.671875 -0.53125 C 35.796875 0.46875 32.613281 0.96875 29.125 0.96875 C 25.625 0.96875 22.445312 0.453125 19.59375 -0.578125 C 16.75 -1.617188 14.304688 -3.0625 12.265625 -4.90625 C 10.234375 -6.75 8.664062 -8.960938 7.5625 -11.546875 C 6.46875 -14.140625 5.921875 -17.019531 5.921875 -20.1875 Z M 5.921875 -33.296875 "/></g></g><g style="fill:#000000;fill-opacity:1;"><g transform="translate(127.415548, 312.734943)"><path style="stroke:none" d="M 29.703125 0.96875 C 26.203125 0.96875 23.03125 0.484375 20.1875 -0.484375 C 17.34375 -1.453125 14.914062 -2.84375 12.90625 -4.65625 C 10.90625 -6.46875 9.351562 -8.648438 8.25 -11.203125 C 7.144531 -13.765625 6.59375 -16.628906 6.59375 -19.796875 L 6.59375 -33.484375 C 6.59375 -36.660156 7.144531 -39.523438 8.25 -42.078125 C 9.351562 -44.628906 10.90625 -46.8125 12.90625 -48.625 C 14.914062 -50.4375 17.34375 -51.84375 20.1875 -52.84375 C 23.03125 -53.851562 26.203125 -54.359375 29.703125 -54.359375 C 32.804688 -54.359375 35.679688 -53.921875 38.328125 -53.046875 C 40.984375 -52.171875 43.316406 -50.90625 45.328125 -49.25 C 47.335938 -47.601562 49.003906 -45.628906 50.328125 -43.328125 C 51.648438 -41.035156 52.539062 -38.4375 53 -35.53125 L 40.859375 -35.53125 C 40.410156 -37.988281 39.179688 -39.976562 37.171875 -41.5 C 35.171875 -43.019531 32.679688 -43.78125 29.703125 -43.78125 C 26.273438 -43.78125 23.585938 -42.875 21.640625 -41.0625 C 19.703125 -39.25 18.734375 -36.722656 18.734375 -33.484375 L 18.734375 -19.796875 C 18.734375 -16.628906 19.6875 -14.140625 21.59375 -12.328125 C 23.5 -10.515625 26.203125 -9.609375 29.703125 -9.609375 C 32.609375 -9.609375 35.082031 -10.367188 37.125 -11.890625 C 39.164062 -13.410156 40.410156 -15.398438 40.859375 -17.859375 L 53 -17.859375 C 52.539062 -14.941406 51.648438 -12.332031 50.328125 -10.03125 C 49.003906 -7.738281 47.320312 -5.769531 45.28125 -4.125 C 43.238281 -2.476562 40.90625 -1.21875 38.28125 -0.34375 C 35.664062 0.53125 32.804688 0.96875 29.703125 0.96875 Z M 29.703125 0.96875 "/></g></g><g style="fill:#000000;fill-opacity:1;"><g transform="translate(189.240283, 312.734943)"><path style="stroke:none" d="M 19.890625 -70.859375 L 19.890625 -32.328125 L 28.4375 -32.328125 L 41.734375 -53.390625 L 55.328125 -53.390625 L 38.828125 -27.375 L 55.609375 0 L 41.734375 0 L 28.4375 -21.9375 L 19.890625 -21.9375 L 19.890625 0 L 7.765625 0 L 7.765625 -70.859375 Z M 19.890625 -70.859375 "/></g></g><g style="fill:#000000;fill-opacity:1;"><g transform="translate(251.065018, 312.734943)"><path style="stroke:none" d="M 8.0625 0 L 8.0625 -10.578125 L 23 -10.578125 L 23 -59.3125 L 8.0625 -59.3125 L 8.0625 -69.890625 L 50.1875 -69.890625 L 50.1875 -59.3125 L 35.234375 -59.3125 L 35.234375 -10.578125 L 50.1875 -10.578125 L 50.1875 0 Z M 8.0625 0 "/></g></g><g style="fill:#000000;fill-opacity:1;"><g transform="translate(312.889753, 312.734943)"><path style="stroke:none" d="M 4.375 -53.390625 L 19.125 -53.390625 L 19.125 -69.890625 L 31.25 -69.890625 L 31.25 -53.390625 L 51.546875 -53.390625 L 51.546875 -42.421875 L 31.25 -42.421875 L 31.25 -16.5 C 31.25 -14.820312 31.75 -13.476562 32.75 -12.46875 C 33.757812 -11.46875 35.171875 -10.96875 36.984375 -10.96875 L 50.5625 -10.96875 L 50.5625 0 L 36.109375 0 C 30.867188 0 26.726562 -1.488281 23.6875 -4.46875 C 20.644531 -7.445312 19.125 -11.457031 19.125 -16.5 L 19.125 -42.421875 L 4.375 -42.421875 Z M 4.375 -53.390625 "/></g></g></g></svg>